<svg xmlns="http://www.w3.org/2000/svg" xmlns:xlink="http://www.w3.org/1999/xlink" width="1200" height="1200" viewBox="0 0 512 512" fill="none" class="h-full w-full" id="iconWithBackground"><rect id="r4" width="512" height="512" x="0" y="0" rx="80" fill="url(#linearGradient-iconWithBackground)" stroke="#000000" stroke-width="0" stroke-opacity="100%" paint-order="stroke"/><defs><linearGradient id="linearGradient-iconWithBackground" gradientUnits="userSpaceOnUse" gradientTransform="rotate(0)" style="transform-origin:center center"><stop stop-color="#ce36c2"/><stop offset="1" stop-color="#613498"/></linearGradient><radialGradient id="glare" cx="0" cy="0" r="1" gradientUnits="userSpaceOnUse" gradientTransform="translate(256) rotate(90) scale(512)"><stop stop-color="white"/><stop offset="1" stop-color="white" stop-opacity="0"/></radialGradient><clipPath id="clip"><use xlink:href="#r4"/></clipPath></defs><svg xmlns="http://www.w3.org/2000/svg" width="340" height="340" viewBox="0 0 1024 1024" x="86" y="86"><path fill="#ffffff" d="M140 188h584v164h76V144c0-17.7-14.3-32-32-32H96c-17.7 0-32 14.3-32 32v736c0 17.7 14.3 32 32 32h544v-76H140V188z"/><path fill="#ffffff" d="M414.3 256h-60.6c-3.4 0-6.4 2.2-7.6 5.4L219 629.4c-.3.8-.4 1.7-.4 2.6c0 4.4 3.6 8 8 8h55.1c3.4 0 6.4-2.2 7.6-5.4L322 540h196.2L422 261.4c-1.3-3.2-4.3-5.4-7.7-5.4zm12.4 228h-85.5L384 360.2L426.7 484zM936 528H800v-93c0-4.4-3.6-8-8-8h-56c-4.4 0-8 3.6-8 8v93H592c-13.3 0-24 10.7-24 24v176c0 13.3 10.7 24 24 24h136v152c0 4.4 3.6 8 8 8h56c4.4 0 8-3.6 8-8V752h136c13.3 0 24-10.7 24-24V552c0-13.3-10.7-24-24-24zM728 680h-88v-80h88v80zm160 0h-88v-80h88v80z"/></svg></svg>